<svg xmlns="http://www.w3.org/2000/svg" viewBox="0 0 247.03 383"><defs><style>.cls-1{fill:#fff;}</style></defs><g id="Calque_2" data-name="Calque 2"><g id="Calque_1-2" data-name="Calque 1"><path class="cls-1" d="M107.78,383c-6-.87-12.09-1.5-18.06-2.63-44.06-8.33-71.18-35-83.36-77.58C1.14,284.54-.41,265.85.09,246.6l88.73-10.26c.33,7.87.1,15.51,1.12,23,1.06,7.83,2.49,15.81,5.26,23.16,4,10.56,12.4,16.3,23.86,16.87a72.12,72.12,0,0,0,11.57-.36c10.84-1.27,17.86-7.57,19.67-18.08a212.87,212.87,0,0,0,3.5-34.86c.31-80.32.19-160.65.21-241V0h92.8c.06,1,.2,2.07.2,3.14q0,119.57-.09,239.11c-.06,23.41-2.81,46.54-10.63,68.79-13.74,39.1-41.57,61.6-82,68.91-7.45,1.34-15,2.05-22.53,3.05Z"/></g></g></svg>